<svg width="101" height="101" viewBox="0 0 101 101" fill="none" xmlns="http://www.w3.org/2000/svg">
<g clip-path="url(#clip0_3_29)">
<g clip-path="url(#clip1_3_29)">
<path fill-rule="evenodd" clip-rule="evenodd" d="M33.1501 54.0025C16.5741 54.0025 3.08813 67.4885 3.08813 84.0645C3.08813 84.4624 3.24617 84.8439 3.52747 85.1252C3.80878 85.4065 4.19031 85.5645 4.58813 85.5645H61.7161C62.114 85.5645 62.4955 85.4065 62.7768 85.1252C63.0581 84.8439 63.2161 84.4624 63.2161 84.0645C63.2161 67.4885 49.7281 54.0025 33.1501 54.0025ZM6.12913 82.5645C6.91013 68.3375 18.7321 57.0025 33.1501 57.0025C47.5701 57.0025 59.3931 68.3375 60.1741 82.5645H6.12913ZM33.6531 50.0865C43.2511 50.0865 51.0581 42.2775 51.0581 32.6785C51.0581 23.0815 43.2501 15.2745 33.6531 15.2745C24.0541 15.2745 16.2451 23.0825 16.2451 32.6785C16.2451 42.2775 24.0551 50.0865 33.6531 50.0865ZM33.6531 18.2735C41.5961 18.2735 48.0581 24.7355 48.0581 32.6775C48.0581 40.6225 41.5961 47.0855 33.6531 47.0855C25.7091 47.0855 19.2451 40.6225 19.2451 32.6775C19.2451 24.7355 25.7091 18.2735 33.6531 18.2735ZM73.8791 61.3345C69.8284 61.3336 65.8509 62.4149 62.3581 64.4665C62.1883 64.5665 62.0399 64.6989 61.9212 64.8562C61.8026 65.0135 61.7161 65.1926 61.6667 65.3834C61.6173 65.5741 61.606 65.7727 61.6333 65.9678C61.6607 66.1629 61.7262 66.3507 61.8261 66.5205C61.9261 66.6903 62.0585 66.8388 62.2158 66.9574C62.3731 67.076 62.5522 67.1625 62.743 67.2119C62.9337 67.2613 63.1323 67.2727 63.3274 67.2453C63.5225 67.218 63.7103 67.1525 63.8801 67.0525C66.9118 65.2718 70.3642 64.3335 73.8801 64.3345C84.2561 64.3345 92.7881 72.3835 93.5571 82.5645H68.7091C68.3113 82.5645 67.9298 82.7226 67.6485 83.0039C67.3672 83.2852 67.2091 83.6667 67.2091 84.0645C67.2091 84.4624 67.3672 84.8439 67.6485 85.1252C67.9298 85.4065 68.3113 85.5645 68.7091 85.5645H95.1131C95.511 85.5645 95.8925 85.4065 96.1738 85.1252C96.4551 84.8439 96.6131 84.4624 96.6131 84.0645C96.6121 71.5315 86.4141 61.3345 73.8791 61.3345ZM74.2451 56.8395C81.5931 56.8395 87.5701 50.8615 87.5701 43.5155C87.5701 36.1665 81.5921 30.1885 74.2451 30.1885C66.9001 30.1885 60.9251 36.1675 60.9251 43.5155C60.9251 50.8615 66.9001 56.8395 74.2451 56.8395ZM74.2451 33.1875C79.9381 33.1875 84.5701 37.8205 84.5701 43.5145C84.5701 49.2075 79.9381 53.8385 74.2451 53.8385C68.5551 53.8385 63.9251 49.2075 63.9251 43.5145C63.9251 37.8205 68.5551 33.1875 74.2451 33.1875Z" fill="black"/>
</g>
</g>
<defs>
<clipPath id="clip0_3_29">
<rect width="100" height="100" fill="white" transform="translate(0.369141 0.9375)"/>
</clipPath>
<clipPath id="clip1_3_29">
<rect width="100" height="100" fill="white" transform="translate(0.369141 0.9375)"/>
</clipPath>
</defs>
</svg>
