<svg width="101" height="101" viewBox="0 0 101 101" fill="none" xmlns="http://www.w3.org/2000/svg">
<g clip-path="url(#clip0_3_36)">
<g clip-path="url(#clip1_3_36)">
<path fill-rule="evenodd" clip-rule="evenodd" d="M92.3851 18.9635H55.8871C54.5135 18.9651 53.1967 19.5115 52.2254 20.4827C51.2541 21.454 50.7077 22.7709 50.7061 24.1445V28.4985H9.82914C8.06487 28.5006 6.37347 29.2025 5.12604 30.4501C3.8786 31.6977 3.17699 33.3892 3.17514 35.1535V65.8765C3.17726 67.6404 3.87905 69.3315 5.12651 70.5785C6.37398 71.8256 8.06522 72.5269 9.82914 72.5285H16.2201V85.4125C16.2203 85.7029 16.3048 85.987 16.4633 86.2304C16.6218 86.4737 16.8475 86.6658 17.1131 86.7833C17.3786 86.9009 17.6726 86.9388 17.9593 86.8925C18.246 86.8462 18.5131 86.7177 18.7281 86.5225L34.1311 72.5285H60.9351C62.6989 72.5266 64.3899 71.8252 65.6371 70.5782C66.8844 69.3311 67.586 67.6402 67.5881 65.8765V51.2665H74.8611L85.7381 61.1475C85.9532 61.343 86.2204 61.4718 86.5072 61.5183C86.7941 61.5648 87.0883 61.5269 87.354 61.4093C87.6198 61.2918 87.8456 61.0995 88.0042 60.856C88.1628 60.6124 88.2472 60.3281 88.2471 60.0375V51.2665H92.3841C93.7575 51.2644 95.0739 50.7176 96.0446 49.7461C97.0153 48.7747 97.5611 47.4578 97.5621 46.0845V24.1445C97.5616 22.7713 97.0161 21.4544 96.0455 20.483C95.0748 19.5116 93.7584 18.9651 92.3851 18.9635ZM64.5891 65.8755C64.5878 66.8438 64.2025 67.7721 63.5177 68.4567C62.8329 69.1414 61.9045 69.5264 60.9361 69.5275H33.5521C33.1791 69.5275 32.8201 69.6665 32.5431 69.9175L19.2191 82.0225V71.0275C19.2191 70.6297 19.0611 70.2481 18.7798 69.9668C18.4985 69.6855 18.117 69.5275 17.7191 69.5275H9.82814C8.85963 69.5267 7.93098 69.1418 7.24596 68.4571C6.56093 67.7724 6.17546 66.844 6.17414 65.8755V35.1525C6.1752 34.1836 6.56048 33.2547 7.24548 32.5695C7.93048 31.8844 8.85927 31.4988 9.82814 31.4975H52.1911L52.2061 31.4985L52.2211 31.4975H60.9361C61.9049 31.4988 62.8336 31.8844 63.5184 32.5696C64.2033 33.2548 64.5883 34.1837 64.5891 35.1525V65.8755ZM94.5631 46.0845C94.5629 46.6624 94.3335 47.2167 93.9252 47.6257C93.5169 48.0347 92.9631 48.2652 92.3851 48.2665H86.7481C86.3503 48.2665 85.9688 48.4245 85.6875 48.7058C85.4062 48.9871 85.2481 49.3687 85.2481 49.7665V56.6485L76.4501 48.6565C76.1738 48.4059 75.8142 48.267 75.4411 48.2665H67.5881V35.1535C67.5881 31.4845 64.6031 28.4985 60.9351 28.4985H53.7061V24.1445C53.7061 22.9415 54.6851 21.9635 55.8871 21.9635H92.3851C93.5861 21.9635 94.5631 22.9415 94.5631 24.1445V46.0845Z" fill="black"/>
</g>
</g>
<defs>
<clipPath id="clip0_3_36">
<rect width="100" height="100" fill="white" transform="translate(0.369141 0.9375)"/>
</clipPath>
<clipPath id="clip1_3_36">
<rect width="100" height="100" fill="white" transform="translate(0.369141 0.9375)"/>
</clipPath>
</defs>
</svg>
