<svg width="101" height="101" viewBox="0 0 101 101" fill="none" xmlns="http://www.w3.org/2000/svg">
<g clip-path="url(#clip0_3_43)">
<g clip-path="url(#clip1_3_43)">
<path fill-rule="evenodd" clip-rule="evenodd" d="M45.1921 72.6775H15.4871C16.2631 58.4525 28.0081 47.1195 42.3351 47.1195C46.4091 47.1195 50.3221 48.0135 53.9671 49.7755C54.1448 49.8643 54.3384 49.9169 54.5366 49.9302C54.7348 49.9436 54.9337 49.9175 55.1217 49.8533C55.3097 49.7892 55.4831 49.6884 55.6319 49.5567C55.7806 49.425 55.9017 49.2651 55.9881 49.0862C56.0745 48.9073 56.1246 48.7131 56.1353 48.5147C56.146 48.3164 56.1173 48.1178 56.0507 47.9307C55.984 47.7435 55.8809 47.5715 55.7473 47.4245C55.6136 47.2775 55.4521 47.1586 55.2721 47.0745C51.2401 45.1189 46.8153 44.1083 42.3341 44.1195C25.8541 44.1195 12.4451 57.6025 12.4451 74.1775C12.4451 74.5753 12.6032 74.9569 12.8845 75.2382C13.1658 75.5195 13.5473 75.6775 13.9451 75.6775H45.1911C45.3881 75.6776 45.5832 75.6388 45.7652 75.5635C45.9472 75.4882 46.1126 75.3778 46.2519 75.2385C46.3913 75.0993 46.5018 74.934 46.5773 74.752C46.6527 74.57 46.6916 74.375 46.6916 74.178C46.6917 73.981 46.653 73.786 46.5776 73.604C46.5023 73.4219 46.3919 73.2565 46.2526 73.1172C46.1134 72.9779 45.9481 72.8673 45.7661 72.7919C45.5842 72.7164 45.3891 72.6776 45.1921 72.6775ZM42.9341 40.6965C52.5911 40.6965 60.4471 32.8415 60.4471 23.1855C60.4471 13.5315 52.5911 5.67651 42.9341 5.67651C33.2811 5.67651 25.4281 13.5305 25.4281 23.1855C25.4281 32.8415 33.2811 40.6965 42.9341 40.6965ZM42.9341 8.67751C50.9361 8.67751 57.4471 15.1865 57.4471 23.1865C57.4471 31.1875 50.9361 37.6975 42.9341 37.6975C34.9351 37.6975 28.4281 31.1875 28.4281 23.1865C28.4281 15.1855 34.9351 8.67751 42.9341 8.67751Z" fill="black"/>
<path fill-rule="evenodd" clip-rule="evenodd" d="M86.1921 54.6775H52.1921C51.7943 54.6775 51.4128 54.8355 51.1315 55.1168C50.8502 55.3981 50.6921 55.7797 50.6921 56.1775V88.1775C50.6921 88.5753 50.8502 88.9568 51.1315 89.2381C51.4128 89.5195 51.7943 89.6775 52.1921 89.6775H62.6921V96.7845C62.692 96.9815 62.7307 97.1766 62.806 97.3587C62.8814 97.5407 62.9919 97.7061 63.1312 97.8454C63.2705 97.9848 63.4359 98.0952 63.618 98.1706C63.8 98.2459 63.9951 98.2846 64.1921 98.2845C64.6081 98.2845 65.0141 98.1115 65.3041 97.7925L74.8301 89.7185C75.1801 89.7185 86.1931 89.6775 86.1931 89.6775C86.591 89.6775 86.9725 89.5195 87.2538 89.2381C87.5351 88.9568 87.6931 88.5753 87.6931 88.1775V56.1775C87.6931 55.9804 87.6543 55.7853 87.5789 55.6032C87.5034 55.4212 87.3928 55.2558 87.2534 55.1165C87.1141 54.9772 86.9486 54.8667 86.7665 54.7914C86.5844 54.7161 86.3892 54.6774 86.1921 54.6775ZM84.6921 86.6775H74.4571C74.1941 86.6775 73.7331 86.6875 73.1191 87.1805L65.6921 92.8985V88.1775C65.6921 87.7797 65.5341 87.3981 65.2528 87.1168C64.9715 86.8355 64.59 86.6775 64.1921 86.6775H53.6911V57.6775H84.6911L84.6921 86.6775Z" fill="black"/>
<path fill-rule="evenodd" clip-rule="evenodd" d="M65.6921 68.1484C66.09 68.1484 66.4715 67.9904 66.7528 67.7091C67.0341 67.4278 67.1921 67.0463 67.1921 66.6484C67.1921 65.3444 68.2531 64.2844 69.5561 64.2844C70.8591 64.2844 71.9211 65.3454 71.9211 66.6484C71.92 67.2568 71.6849 67.8413 71.2645 68.2811C70.8442 68.7208 70.2708 68.9819 69.6631 69.0104C69.6271 69.0124 69.1871 69.0124 69.1511 69.0124C68.4501 69.0124 67.7881 69.3814 67.7011 70.1454L67.6911 74.1764C67.6911 74.5743 67.8492 74.9558 68.1305 75.2371C68.4118 75.5184 68.7933 75.6764 69.1911 75.6764C69.589 75.6764 69.9705 75.5184 70.2518 75.2371C70.5331 74.9558 70.6911 74.5743 70.6911 74.1764V71.8854C73.1041 71.3624 74.9201 69.2154 74.9201 66.6474C74.9201 63.6894 72.5131 61.2834 69.5551 61.2834C66.5971 61.2834 64.1911 63.6894 64.1911 66.6474C64.1914 67.0455 64.3496 67.4271 64.6311 67.7085C64.9125 67.99 65.2941 68.1482 65.6921 68.1484ZM69.1921 77.6774C68.5291 77.6774 67.8932 77.9408 67.4244 78.4097C66.9555 78.8785 66.6921 79.5144 66.6921 80.1774C66.6921 80.8405 66.9555 81.4764 67.4244 81.9452C67.8932 82.4141 68.5291 82.6774 69.1921 82.6774C69.8552 82.6774 70.4911 82.4141 70.9599 81.9452C71.4287 81.4764 71.6921 80.8405 71.6921 80.1774C71.6921 79.5144 71.4287 78.8785 70.9599 78.4097C70.4911 77.9408 69.8552 77.6774 69.1921 77.6774Z" fill="black"/>
</g>
</g>
<defs>
<clipPath id="clip0_3_43">
<rect width="100" height="100" fill="white" transform="translate(0.369141 0.9375)"/>
</clipPath>
<clipPath id="clip1_3_43">
<rect width="100" height="100" fill="white" transform="translate(0.369141 0.9375)"/>
</clipPath>
</defs>
</svg>
