<svg width="24" height="24" viewBox="0 0 24 24" fill="none" xmlns="http://www.w3.org/2000/svg">
<path fill-rule="evenodd" clip-rule="evenodd" d="M12.3691 23.4575C18.7204 23.4575 23.8691 18.3087 23.8691 11.9575C23.8691 5.6063 18.7204 0.45752 12.3691 0.45752C6.01792 0.45752 0.869141 5.6063 0.869141 11.9575C0.869141 18.3087 6.01792 23.4575 12.3691 23.4575ZM17.4239 7.80464C17.5126 6.79724 16.4487 7.21216 16.4487 7.21216C15.6632 7.53738 14.8531 7.86766 14.0343 8.20162C11.4951 9.23731 8.87222 10.3073 6.63777 11.3604C5.42613 11.8048 6.13545 12.2492 6.13545 12.2492L8.05618 12.8419C8.94283 13.1087 9.41548 12.8122 9.41548 12.8122L13.5527 9.99746C15.0302 8.99006 14.6756 9.81967 14.3209 10.1753L11.2182 13.1381C10.7453 13.553 10.9818 13.9086 11.1886 14.0864C11.7751 14.6037 13.2172 15.5501 13.8467 15.9632C14.0104 16.0706 14.1192 16.1421 14.1438 16.1605C14.2915 16.279 15.0894 16.8124 15.6213 16.6939C16.1533 16.5752 16.2124 15.8937 16.2124 15.8937L16.9215 11.2418C17.0278 10.4342 17.1499 9.65798 17.2474 9.0379C17.3394 8.45232 17.4096 8.00635 17.4239 7.80464Z" fill="black"/>
</svg>
