<svg width="32" height="33" viewBox="0 0 32 33" fill="none" xmlns="http://www.w3.org/2000/svg">
<path fill-rule="evenodd" clip-rule="evenodd" d="M16 32.95C24.8365 32.95 32 25.7866 32 16.95C32 8.11347 24.8365 0.950012 16 0.950012C7.16346 0.950012 0 8.11347 0 16.95C0 25.7866 7.16346 32.95 16 32.95ZM8 13.5554C8 11.0159 10.0661 8.95001 12.6054 8.95001H19.3946C21.9341 8.95001 24 11.0161 24 13.5554V20.4069C24 22.9462 21.9341 25.0123 19.3946 25.0123H12.6054C10.0659 25.0123 8 22.9462 8 20.4069V13.5554ZM11.8363 16.9517C11.8363 14.6731 13.71 12.8195 16.0127 12.8195C18.3154 12.8195 20.1892 14.6731 20.1892 16.9517C20.1892 19.2301 18.3154 21.0837 16.0127 21.0837C13.7098 21.0837 11.8363 19.2301 11.8363 16.9517ZM13.3575 16.9517C13.3575 18.3911 14.5485 19.5624 16.0127 19.5624C17.4769 19.5624 18.6679 18.3913 18.6679 16.9517C18.6679 15.5121 17.4766 14.341 16.0127 14.341C14.5485 14.341 13.3575 15.5121 13.3575 16.9517ZM20.2639 13.6334C20.8067 13.6334 21.2466 13.1934 21.2466 12.6507C21.2466 12.108 20.8067 11.668 20.2639 11.668C19.7212 11.668 19.2812 12.108 19.2812 12.6507C19.2812 13.1934 19.7212 13.6334 20.2639 13.6334Z" fill="white"/>
</svg>
