<svg width="33" height="33" viewBox="0 0 33 33" fill="none" xmlns="http://www.w3.org/2000/svg">
<path fill-rule="evenodd" clip-rule="evenodd" d="M16.3691 32.4376C25.2057 32.4376 32.3691 25.2742 32.3691 16.4376C32.3691 7.60108 25.2057 0.437622 16.3691 0.437622C7.5326 0.437622 0.369141 7.60108 0.369141 16.4376C0.369141 25.2742 7.5326 32.4376 16.3691 32.4376ZM16.954 16.1841L24.1103 11.2185C23.8682 10.8904 23.479 10.6776 23.0401 10.6776H9.69823C9.27589 10.6776 8.89957 10.8746 8.65612 11.1817L15.5973 16.1727C16.0015 16.4633 16.5449 16.4679 16.954 16.1841ZM24.3691 20.8123V12.4788L17.4785 17.26C16.7494 17.7659 15.7807 17.7578 15.0602 17.2397L8.36914 12.4286V20.8123C8.36914 21.5464 8.96418 22.1414 9.69823 22.1414H23.0401C23.7741 22.1414 24.3691 21.5464 24.3691 20.8123Z" fill="white"/>
</svg>
