<svg width="33" height="33" viewBox="0 0 33 33" fill="none" xmlns="http://www.w3.org/2000/svg">
<g clip-path="url(#clip0_31_8)">
<mask id="mask0_31_8" style="mask-type:luminance" maskUnits="userSpaceOnUse" x="0" y="0" width="33" height="33">
<path d="M32.6309 0.51239H0.630859V32.5124H32.6309V0.51239Z" fill="white"/>
</mask>
<g mask="url(#mask0_31_8)">
<path fill-rule="evenodd" clip-rule="evenodd" d="M2.88028 2.76181C0.630859 5.01123 0.630859 8.63159 0.630859 15.8724V17.1524C0.630859 24.3932 0.630859 28.0135 2.88028 30.263C5.1297 32.5124 8.75006 32.5124 15.9909 32.5124H17.2709C24.5117 32.5124 28.132 32.5124 30.3815 30.263C32.6309 28.0135 32.6309 24.3932 32.6309 17.1524V15.8724C32.6309 8.63159 32.6309 5.01123 30.3815 2.76181C28.132 0.51239 24.5117 0.51239 17.2709 0.51239H15.9909C8.75006 0.51239 5.1297 0.51239 2.88028 2.76181ZM6.03094 10.2458C6.20427 18.5658 10.3643 23.5658 17.6576 23.5658H18.071V18.8058C20.751 19.0725 22.7775 21.0325 23.5909 23.5658H27.3776C26.3376 19.7791 23.6041 17.6858 21.8975 16.8858C23.6041 15.8991 26.0041 13.4991 26.5775 10.2458H23.1374C22.3907 12.8858 20.1777 15.2858 18.071 15.5125V10.2458H14.6309V19.4725C12.4975 18.9391 9.80426 16.3525 9.68426 10.2458H6.03094Z" fill="white"/>
</g>
</g>
<defs>
<clipPath id="clip0_31_8">
<rect x="0.630859" y="0.51239" width="32" height="32" rx="16" fill="white"/>
</clipPath>
</defs>
</svg>
